<?xml version="1.0" encoding="utf-8"?>
<!-- Generator: Adobe Illustrator 19.0.0, SVG Export Plug-In . SVG Version: 6.00 Build 0)  -->
<svg version="1.1" id="Layer_1" xmlns="http://www.w3.org/2000/svg" xmlns:xlink="http://www.w3.org/1999/xlink" x="0px" y="0px"
	 viewBox="0 0 303.9 107.5" style="enable-background:new 0 0 303.9 107.5;" xml:space="preserve">
<style type="text/css">
	.st0{fill:url(#XMLID_136_);}
	.st1{fill:url(#XMLID_137_);stroke:#939598;stroke-miterlimit:10;}
	.st2{fill:#FFFFFF;}
	.st3{opacity:0.5;fill:url(#XMLID_138_);stroke:#808285;stroke-miterlimit:10;}
	.st4{fill:#26427E;}
	.st5{fill:#AECA36;}
	.st6{fill:#72A140;}
</style>
<linearGradient id="XMLID_136_" gradientUnits="userSpaceOnUse" x1="87.9783" y1="55.1659" x2="105.2283" y2="55.1659">
	<stop  offset="0" style="stop-color:#FFFFFF"/>
	<stop  offset="1" style="stop-color:#D1D3D4"/>
</linearGradient>
<path id="XMLID_37_" class="st0" d="M103.2,97.3H90c-1.1,0-2-0.9-2-2V15c0-1.1,0.9-2,2-2h13.2c1.1,0,2,0.9,2,2v80.3
	C105.2,96.4,104.3,97.3,103.2,97.3z"/>
<radialGradient id="XMLID_137_" cx="46.1522" cy="53.7609" r="49.6026" gradientTransform="matrix(1 0 0 1.8 0 -43.0087)" gradientUnits="userSpaceOnUse">
	<stop  offset="0" style="stop-color:#FFFFFF"/>
	<stop  offset="0.5149" style="stop-color:#FCFCFC"/>
	<stop  offset="0.7003" style="stop-color:#F5F5F5"/>
	<stop  offset="0.8325" style="stop-color:#EBEBEC"/>
	<stop  offset="0.9387" style="stop-color:#DDDEDF"/>
	<stop  offset="1" style="stop-color:#D1D3D4"/>
</radialGradient>
<path id="XMLID_1_" class="st1" d="M86.8,107H5.5c-2.8,0-5-2.2-5-5V5.5c0-2.8,2.2-5,5-5h81.3c2.8,0,5,2.2,5,5V102
	C91.8,104.8,89.6,107,86.8,107z"/>
<path id="XMLID_74_" class="st2" d="M86,29.8H6.5c-1.1,0-2-0.9-2-2V8.4c0-1.1,0.9-2,2-2H86c1.1,0,2,0.9,2,2v19.3
	C88,28.9,87.1,29.8,86,29.8z"/>
<linearGradient id="XMLID_138_" gradientUnits="userSpaceOnUse" x1="10.4993" y1="-2.5195" x2="81.9573" y2="38.7368">
	<stop  offset="0" style="stop-color:#DEE8D1"/>
	<stop  offset="1" style="stop-color:#C2D2B0"/>
</linearGradient>
<path id="XMLID_2_" class="st3" d="M86,29.8H6.5c-1.1,0-2-0.9-2-2V8.4c0-1.1,0.9-2,2-2H86c1.1,0,2,0.9,2,2v19.3
	C88,28.9,87.1,29.8,86,29.8z"/>
<g id="XMLID_3_">
	<path id="XMLID_80_" class="st4" d="M24,99.3c6.8-10.5,11.7-22.6,12.7-35.5l-23.2-7.4C26.8,63.6,28.1,79.4,24,99.3z"/>
	<path id="XMLID_81_" class="st4" d="M61.4,72.3L61.4,72.3c1.7,0.2,3.4,0.5,5,0.9l-5.5-1.8L61.4,72.3C61.4,72.3,61.4,72.3,61.4,72.3
		z"/>
	<path id="XMLID_82_" class="st5" d="M37.1,73.9c0.3-1.1,0.6-2.2,0.9-3.3C37.7,71.6,37.4,72.8,37.1,73.9z"/>
	<path id="XMLID_83_" class="st5" d="M30.8,89.7c0.4-0.8,0.8-1.6,1.2-2.4C31.6,88.2,31.2,88.9,30.8,89.7z"/>
	<path id="XMLID_84_" class="st5" d="M60.9,71.4L38.1,36.5c0.2,1.6,0.5,3.2,0.7,4.8c1.8,10.1,1.3,19.9-0.9,29.2
		c0.5-2,0.9-3.9,1.2-5.9L60.9,71.4z"/>
	<path id="XMLID_85_" class="st5" d="M32.3,86.7c0.4-0.8,0.8-1.7,1.1-2.5C33.1,85,32.7,85.8,32.3,86.7z"/>
	<path id="XMLID_86_" class="st5" d="M77.1,96.3l-15.7-24c-8.5-0.8-18.1,2.8-30.8,18.3c0,0,0,0,0-0.1c-0.2,0.2-0.4,0.4-0.6,0.7
		c0.1-0.2,0.2-0.5,0.4-0.7c-1,2-2.1,3.9-3.2,5.7C43.8,76.3,63.4,76.3,77.1,96.3z"/>
	<path id="XMLID_87_" class="st5" d="M33.7,83.6c0.4-0.9,0.7-1.8,1.1-2.7C34.4,81.7,34.1,82.7,33.7,83.6z"/>
	<path id="XMLID_88_" class="st5" d="M34.9,80.4c0.4-1,0.7-1.9,1-2.9C35.7,78.4,35.3,79.4,34.9,80.4z"/>
	<path id="XMLID_89_" class="st5" d="M36.1,77.2c0.3-1,0.7-2.1,1-3.1C36.7,75.1,36.4,76.1,36.1,77.2z"/>
	<path id="XMLID_90_" class="st5" d="M30.7,90.5C30.6,90.6,30.6,90.6,30.7,90.5c12.7-15.5,22.3-19,30.8-18.2l0,0
		C53,71.5,43.4,75.1,30.7,90.5z"/>
	<path id="XMLID_91_" class="st6" d="M36,77.5c0-0.1,0.1-0.2,0.1-0.3C36,77.3,36,77.4,36,77.5z"/>
	<polygon id="XMLID_92_" class="st6" points="60.9,71.5 60.9,71.4 60.9,71.4 60.9,71.5 	"/>
	<path id="XMLID_93_" class="st6" d="M32,87.4c0.1-0.2,0.2-0.5,0.3-0.7C32.2,86.9,32.1,87.1,32,87.4z"/>
	<path id="XMLID_94_" class="st6" d="M33.5,84.1c0.1-0.2,0.2-0.4,0.2-0.6C33.6,83.8,33.5,83.9,33.5,84.1z"/>
	<path id="XMLID_95_" class="st6" d="M34.8,80.8c0.1-0.1,0.1-0.3,0.2-0.4C34.9,80.5,34.8,80.7,34.8,80.8z"/>
	<path id="XMLID_96_" class="st6" d="M30.5,90.5c0.1-0.3,0.3-0.5,0.4-0.8C30.7,90,30.6,90.2,30.5,90.5z"/>
	<path id="XMLID_97_" class="st6" d="M37,74c0-0.1,0-0.1,0-0.2C37.1,73.9,37,74,37,74z"/>
	<path id="XMLID_98_" class="st6" d="M37.9,70.5C37.9,70.5,37.9,70.5,37.9,70.5C37.9,70.5,37.9,70.5,37.9,70.5z"/>
	<path id="XMLID_99_" class="st6" d="M61.4,72.3C61.4,72.3,61.4,72.3,61.4,72.3l-0.5-0.8l0,0L61.4,72.3z"/>
	<path id="XMLID_100_" class="st6" d="M30.7,90.5c4.1-8,7.2-16.7,8.6-26l21.6,6.9l0,0l-21.7-6.9c-0.3,2-0.7,4-1.2,5.9c0,0,0,0,0,0.1
		c-0.3,1.1-0.5,2.2-0.9,3.3c0,0.1,0,0.1,0,0.2c-0.3,1.1-0.6,2.1-1,3.1c0,0.1-0.1,0.2-0.1,0.3c-0.3,1-0.7,2-1,2.9
		c-0.1,0.1-0.1,0.3-0.2,0.4c-0.3,0.9-0.7,1.8-1.1,2.7c-0.1,0.2-0.2,0.4-0.2,0.6c-0.4,0.9-0.7,1.7-1.1,2.5c-0.1,0.2-0.2,0.5-0.3,0.7
		c-0.4,0.8-0.8,1.6-1.2,2.4c-0.1,0.3-0.3,0.5-0.4,0.8c-0.1,0.2-0.2,0.5-0.4,0.7C30.3,91,30.5,90.8,30.7,90.5z"/>
	<path id="XMLID_101_" class="st6" d="M61.4,72.3l-0.5-0.8l-21.6-6.9c-1.3,9.2-4.5,18-8.6,26C43.4,75.1,53,71.5,61.4,72.3z"/>
</g>
<g id="XMLID_32_">
	<path id="XMLID_16_" class="st4" d="M125.4,52.7h-5l19.6-40.1h5.3l5.2,40.1H145l-1.2-8.8h-14.1L125.4,52.7z M131.7,39.9h11.7
		l-2.1-15.2l-0.4-4l-1.7,4L131.7,39.9z"/>
	<path id="XMLID_19_" class="st5" d="M185.8,48.3l-0.8,4.4h-21.7l7.2-40.1h5.2l-6.4,35.7H185.8z"/>
	<path id="XMLID_21_" class="st5" d="M208.2,38.1l-2.6,14.6h-5.2l7.2-40.1h10c4.1,0,7,0.5,8.7,1.4c1.7,0.9,2.9,2.3,3.6,4.1
		c0.7,1.8,0.8,3.8,0.4,6c-0.5,2.6-1.6,5-3.3,7.2c-1.7,2.2-3.9,3.9-6.5,5.1c-2.6,1.2-6,1.8-10.1,1.8H208.2z M209,34.1h2.2
		c3.2,0,5.7-0.4,7.4-1.3c1.7-0.8,3.1-2,4.3-3.6c1.1-1.6,1.9-3.3,2.2-5.1c0.4-2.3,0-4.1-1.3-5.5c-1.3-1.3-4.1-2-8.6-2h-3.1L209,34.1z
		"/>
	<path id="XMLID_24_" class="st5" d="M237.2,52.7l7.2-40.1h5.2l-3.1,17.3h14.9l3.1-17.3h5.2l-7.2,40.1h-5.2l3.4-18.9h-14.9
		l-3.4,18.9H237.2z"/>
	<path id="XMLID_26_" class="st5" d="M278,52.7h-5l19.6-40.1h5.3l5.2,40.1h-5.5l-1.2-8.8h-14.1L278,52.7z M284.3,39.9H296l-2.1-15.2
		l-0.4-4l-1.7,4L284.3,39.9z"/>
</g>
<g id="XMLID_35_">
	<path id="XMLID_5_" class="st4" d="M119.7,96.4V65.8h5.2V79h14.9V65.8h5.2v30.6h-5.2V82h-14.9v14.4H119.7z"/>
	<path id="XMLID_7_" class="st4" d="M161.5,96.4h-5l12.4-30.6h5.3l12.4,30.6h-5.5l-2.8-6.7h-14.1L161.5,96.4z M165.5,86.6h11.7
		L172.4,75l-1.1-3.1l-1,3.1L165.5,86.6z"/>
	<path id="XMLID_10_" class="st4" d="M198.1,65.8h5.2v20.1c0,2.7,0.3,4.5,0.9,5.4c0.6,1,1.5,1.7,2.7,2.2c1.2,0.5,2.5,0.8,4,0.8
		c1.5,0,2.9-0.3,4.2-0.8c1.2-0.5,2.1-1.4,2.7-2.6c0.6-1.2,0.9-3.3,0.9-6.6V65.8h4.8v20c0,2.9-0.6,5.1-1.7,6.7
		c-1.1,1.6-2.6,2.8-4.4,3.6c-1.8,0.8-4.1,1.2-6.8,1.2c-2.5,0-4.7-0.4-6.6-1.1c-1.9-0.7-3.4-1.8-4.4-3.2c-1-1.4-1.5-4-1.5-7.7V65.8z"
		/>
	<path id="XMLID_12_" class="st4" d="M242.2,96.4h-4.8V65.8h4.7l14.2,20.4l1.5,3h0.1l-0.1-3V65.8h4.8v30.6h-4.8l-13.8-20l-1.9-3.2
		l0.1,3.2V96.4z"/>
	<path id="XMLID_14_" class="st4" d="M286.6,96.4V69.2h-12v-3.4h29.3v3.4h-12.1v27.2H286.6z"/>
</g>
<g id="XMLID_36_">
	<path id="XMLID_29_" class="st5" d="M8.9,19.3l1-0.9l0.8,0.9L10,24.9l-1,0.9l-0.8-0.9L8.9,19.3z M9.7,12.7l1-0.9l0.8,0.9l-0.5,4.5
		l-1,0.9l-0.8-0.9L9.7,12.7z M11,17.4h4.7l0.8,0.9l-1,0.9h-4.7L10,18.3L11,17.4z M11.8,10.8h6.5l-2,1.8h-4.7l-0.8-0.9L11.8,10.8z
		 M15.7,19.3l1-0.9l0.8,0.9l-0.7,5.5l-1,0.9L15,24.9L15.7,19.3z M16.4,12.7l2-1.8l-0.7,6.3l-1,0.9l-0.8-0.9L16.4,12.7z"/>
	<path id="XMLID_40_" class="st5" d="M23.1,12.7l1-0.9l0.8,0.9l-0.6,4.6l-1,0.9l0.8,0.9l-0.6,4.6l-1,0.9l-0.8-0.9l0.6-4.6l1-0.9
		l-0.8-0.9L23.1,12.7z M23.7,24h4.7l0.8,0.9l-1,0.9h-4.7l-0.8-0.9L23.7,24z M25.3,10.8H30l0.8,0.9l-1,0.9h-4.7l-0.8-0.9L25.3,10.8z
		 M29.8,21.1l0.8,0.9l-0.2,1.8l-1,0.9l-0.8-0.9l0.2-1.8L29.8,21.1z M31.7,12.7l-0.2,1.8l-1,0.9l-0.8-0.9l0.2-1.8l1-0.9L31.7,12.7z"
		/>
	<path id="XMLID_46_" class="st5" d="M36.6,12.7l1-0.9l0.8,0.9l-0.6,4.6l-1,0.9l0.8,0.9l-0.6,4.6l-1,0.9l-0.8-0.9l0.6-4.6l1-0.9
		l-0.8-0.9L36.6,12.7z M37.2,24h4.7l0.8,0.9l-1,0.9H37l-0.8-0.9L37.2,24z M38.8,10.8h4.7l0.8,0.9l-1,0.9h-4.7l-0.8-0.9L38.8,10.8z
		 M43.3,21.1l0.8,0.9l-0.2,1.8l-1,0.9l-0.8-0.9l0.2-1.8L43.3,21.1z M45.2,12.7L45,14.5l-1,0.9l-0.8-0.9l0.2-1.8l1-0.9L45.2,12.7z"/>
	<path id="XMLID_52_" class="st5" d="M49.3,19.3l1-0.9l0.8,0.9l-0.6,4.5l-2,1.8L49.3,19.3z M48.7,25.8l2-1.8h4.9l0.8,0.9l-1,0.9
		H48.7z M50.3,10.9l1.6,1.8l-0.5,4.5l-1,0.9l-0.8-0.9L50.3,10.9z M51.5,17.4h4.9l0.8,0.9l-1,0.9h-4.9l-0.8-0.9L51.5,17.4z
		 M50.5,10.8h6.6l0.8,0.9l-1,0.9h-4.9L50.5,10.8z"/>
	<path id="XMLID_58_" class="st5" d="M60.7,23.8l0.2-1.4l1-0.9l0.8,0.9l-0.2,1.4l-1,0.9L60.7,23.8z M62.1,12.7l1-0.9l0.8,0.9
		l-0.5,4.5l-1,0.9l-0.8-0.9L62.1,12.7z M62.6,24h4.7l0.8,0.9l-1,0.9h-4.7l-0.8-0.9L62.6,24z M63.4,17.4h4.7l0.8,0.9l-1,0.9h-4.7
		l-0.8-0.9L63.4,17.4z M64.2,10.8h4.7l0.8,0.9l-1,0.9H64l-0.8-0.9L64.2,10.8z M68.1,19.3l1-0.9l0.8,0.9l-0.6,4.5l-1,0.9l-0.8-0.9
		L68.1,19.3z M68.7,14.2l0.2-1.4l1-0.9l0.8,0.9l-0.2,1.4l-1,0.9L68.7,14.2z"/>
	<path id="XMLID_66_" class="st5" d="M74.2,23.8l0.2-1.4l1-0.9l0.8,0.9L76,23.8l-1,0.9L74.2,23.8z M75.5,12.7l1-0.9l0.8,0.9
		l-0.5,4.5l-1,0.9L75,17.2L75.5,12.7z M76.1,24h4.7l0.8,0.9l-1,0.9h-4.7l-0.8-0.9L76.1,24z M76.9,17.4h4.7l0.8,0.9l-1,0.9h-4.7
		l-0.8-0.9L76.9,17.4z M77.7,10.8h4.7l0.8,0.9l-1,0.9h-4.7l-0.8-0.9L77.7,10.8z M81.5,19.3l1-0.9l0.8,0.9l-0.6,4.5l-1,0.9L81,23.8
		L81.5,19.3z M82.2,14.2l0.2-1.4l1-0.9l0.8,0.9l-0.2,1.4l-1,0.9L82.2,14.2z"/>
</g>
</svg>
